<?xml version="1.0" encoding="UTF-8"?>
<svg width="240px" height="240px" viewBox="0 0 240 240" version="1.1" xmlns="http://www.w3.org/2000/svg" xmlns:xlink="http://www.w3.org/1999/xlink">
    <!-- Generator: Sketch 52.4 (67378) - http://www.bohemiancoding.com/sketch -->
    <title>Artboard</title>
    <desc>Created with Sketch.</desc>
    <g id="Artboard" stroke="none" stroke-width="1" fill="none" fill-rule="evenodd">
        <g id="icons/search" fill="#000000">
            <g id="Shape" transform="translate(2.000000, 2.000000)">
                <path d="M7.78257118,15.5651424 C9.68075928,15.5651424 11.4063848,14.8921484 12.7523727,13.7532355 L18.7920621,19.7929249 C18.9301122,19.930975 19.1026747,20 19.2924935,20 C19.4823123,20 19.6548749,19.930975 19.7929249,19.7929249 C20.069025,19.5168248 20.069025,19.0681622 19.7929249,18.7920621 L13.7532355,12.7523727 C14.8748921,11.4063848 15.5651424,9.66350302 15.5651424,7.78257118 C15.5651424,3.48576359 12.0793788,0 7.78257118,0 C3.50301984,-1.22613069e-15 0,3.50301984 0,7.78257118 C0,12.0793788 3.50301984,15.5651424 7.78257118,15.5651424 Z M7.78257118,1.41501294 C11.3028473,1.41501294 14.1501294,4.27955134 14.1501294,7.78257118 C14.1501294,11.3028473 11.3028473,14.1501294 7.78257118,14.1501294 C4.26229508,14.1501294 1.41501294,11.285591 1.41501294,7.78257118 C1.41501294,4.27955134 4.27955134,1.41501294 7.78257118,1.41501294 Z" fill-rule="nonzero"></path>
            </g>
        </g>
        <g id="icons/menu" transform="translate(24.000000, 0.000000)" fill="#000000" fill-rule="nonzero">
            <rect id="Rectangle" x="3" y="6" width="18" height="1.5"></rect>
            <polygon id="Rectangle" points="7 11 21 11 21 12.5 7 12.5"></polygon>
            <rect id="Rectangle" x="3" y="16" width="18" height="1.5"></rect>
        </g>
        <g id="icons/bag" transform="translate(48.000000, 0.000000)" fill="#000000" fill-rule="nonzero">
            <path d="M21,7.98098479 C20.9641702,7.66261224 20.677532,7.41498914 20.3550639,7.41498914 L17.3330424,7.41498914 L17.3330424,6.21224837 C17.3330424,2.81627444 15.0644366,1 12.0537447,1 C9.04305272,1 6.77444691,2.81627444 6.77444691,6.21224837 L6.77444691,7.41498914 L3.64493608,7.41498914 C3.32246804,7.41498914 3.03582978,7.66261224 3,7.98098479 L3,21 L21,21 L21,7.98098479 Z M8.06431907,6.21224837 C8.06431907,3.52376901 10.0559645,2.27349022 12.0537447,2.27349022 C14.0515249,2.27349022 16.0431703,3.52376901 16.0431703,6.21224837 L16.0431703,7.41498914 L8.06431907,7.41498914 L8.06431907,6.21224837 Z M4.2182126,19.9033834 L4.2182126,8.65310463 L19.8892767,8.65310463 L19.8892767,19.9033834 L4.2182126,19.9033834 Z" id="Shape"></path>
        </g>
        <g id="icons/close" transform="translate(72.000000, 0.000000)" fill="#000000" fill-rule="nonzero">
            <rect id="Rectangle" transform="translate(11.894291, 11.894291) rotate(45.000000) translate(-11.894291, -11.894291) " x="2.89429112" y="11.1442911" width="18" height="1.5"></rect>
            <rect id="Rectangle" transform="translate(11.894291, 11.894291) scale(-1, 1) rotate(45.000000) translate(-11.894291, -11.894291) " x="2.89429112" y="11.1442911" width="18" height="1.5"></rect>
        </g>
        <g id="icons/carrot" transform="translate(96.000000, 0.000000)" fill-rule="nonzero" stroke="#000000" stroke-linecap="square" stroke-linejoin="round">
            <polyline id="Line" transform="translate(12.242641, 10.242641) rotate(-45.000000) translate(-12.242641, -10.242641) " points="10.2426407 7.24264069 9.24264069 13.2426407 15.2426407 12.2426407"></polyline>
        </g>
        <g id="icons/back" transform="translate(120.000000, 0.000000)" fill-rule="nonzero" stroke="#000000" stroke-width="1.5">
            <path d="M18.8726386,8.12067047 C14.0339342,12.9553159 11.614582,15.3726386 11.614582,15.3726386 L4.37932953,8.12067047" id="Triangle" transform="translate(11.625984, 11.746655) rotate(90.000000) translate(-11.625984, -11.746655) "></path>
        </g>
        <g id="icons/carrot-copy" transform="translate(144.000000, 0.000000)" fill="#000000">
            <path d="M15.9195402,10.2068966 C15.6850575,10 15.3333333,10.0344828 15.0988506,10.2413793 C14.8643678,10.4482759 14.9034483,10.7586207 15.137931,10.9655172 L18.108046,13.4482759 L8.22068966,13.4482759 C6.54022989,13.4482759 5.17241379,12.2413793 5.17241379,10.7586207 C5.17241379,9.27586207 6.54022989,8.06896552 8.22068966,8.06896552 C8.53333333,8.06896552 8.80689655,7.82758621 8.80689655,7.55172414 C8.80689655,7.27586207 8.53333333,7 8.22068966,7 C5.87586207,7 4,8.68965517 4,10.7241379 C4,12.7586207 5.91494253,14.4482759 8.22068966,14.4482759 L18.108046,14.4482759 L15.0988506,17.1034483 C14.8643678,17.3103448 14.8643678,17.6206897 15.0988506,17.8275862 C15.216092,17.9310345 15.3724138,17.9655172 15.5287356,17.9655172 C15.6850575,17.9655172 15.8413793,17.9310345 15.9586207,17.8275862 L20.4137931,13.9310345 L15.9195402,10.2068966 Z" id="Path"></path>
        </g>
        <g id="icons-/-accordion-default" transform="translate(168.000000, 0.000000)" fill="#9B9B9B" fill-rule="nonzero">
            <polygon id="Rectangle" points="7 12 12 12 12 7 13 7 13 12 18 12 18 13 13 13 13 18 12 18 12 13 7 13"></polygon>
        </g>
        <g id="icons-/-accordion-open" transform="translate(192.000000, 0.000000)" fill="#9B9B9B" fill-rule="nonzero">
            <polygon id="Rectangle" points="7 12 18 12 18 13 7 13"></polygon>
        </g>
        <g id="icons/social/facebook-black" transform="translate(0.000000, 24.000000)" fill="#000000">
            <path d="M13.4755361,22.1363989 L13.4755361,11.8544313 L16.873419,11.8544313 L17.4102797,8.44709634 L13.4755361,8.44709634 L13.4755361,6.73856781 C13.4755361,5.84949027 13.7674629,5.00087297 15.0455389,5.00087297 L17.6,5.00087297 L17.6,1.6 L13.9734499,1.6 C10.9242817,1.6 10.0922292,3.6048489 10.0922292,6.38391482 L10.0922292,8.44552451 L8,8.44552451 L8,11.8544313 L10.0922292,11.8544313 L10.0922292,22.1363989 L13.4755361,22.1363989 L13.4755361,22.1363989 L13.4755361,22.1363989 Z" id="Shape"></path>
        </g>
        <g id="icons/social/twitter-black" transform="translate(24.000000, 24.000000)" fill="#000000">
            <path d="M23.2,5.3495502 C22.3755542,5.71431991 21.4909358,5.96170256 20.5614807,6.07214581 C21.5105175,5.50468971 22.2369814,4.60462472 22.5812905,3.53542295 C21.691072,4.06092378 20.7084351,4.44250485 19.6614164,4.64935753 C18.8229889,3.75627291 17.6304066,3.2 16.3076332,3.2 C13.769914,3.2 11.712295,5.25452953 11.712295,7.78704956 C11.712295,8.14622767 11.7528859,8.49703666 11.831286,8.83249616 C8.01281179,8.64099297 4.62685593,6.81429376 2.36068229,4.03855738 C1.96454569,4.71503143 1.73919108,5.5032644 1.73919108,6.34467239 C1.73919108,7.93659747 2.551046,9.34122219 3.7828284,10.1630048 C3.02975528,10.1378608 2.32148222,9.93100815 1.70141847,9.58717953 L1.70141847,9.6444843 C1.70141847,11.8667253 3.28592824,13.7213825 5.38691991,14.1434936 C5.00198334,14.2469199 4.59607418,14.3042247 4.17614669,14.3042247 C3.87941941,14.3042247 3.59246469,14.2748779 3.31110999,14.2189619 C3.89618284,16.0428836 5.5926928,17.3692259 7.60273007,17.4055896 C6.03081116,18.6355224 4.04877394,19.3664872 1.89599133,19.3664872 C1.52507308,19.3664872 1.15971823,19.3441208 0.8,19.3035908 C2.83382816,20.6076033 5.24838374,21.3679148 7.84349386,21.3679148 C16.2965064,21.3679148 20.9170629,14.3769155 20.9170629,8.3139757 L20.9016538,7.71998689 C21.8044631,7.0770259 22.5854996,6.26920406 23.2,5.3495502 L23.2,5.3495502 Z" id="Shape"></path>
        </g>
        <g id="icons/social/youtube-black" transform="translate(72.000000, 24.000000)" fill="#000000" fill-rule="nonzero">
            <path d="M22.1858824,7.43902221 C22.1858824,7.43902221 21.9717647,5.86975965 21.36,5.20198834 C20.5647059,4.30049709 19.6776471,4.30049709 19.28,4.23371996 C16.3741176,4 12,4 12,4 L12,4 C12,4 7.62588235,4 4.72,4.23371996 C4.32235294,4.30049709 3.43529412,4.30049709 2.64,5.20198834 C2.02823529,5.90314821 1.81411765,7.43902221 1.81411765,7.43902221 C1.81411765,7.43902221 1.6,9.27539329 1.6,11.1117644 L1.6,12.8479698 C1.6,14.6843408 1.81411765,16.5207119 1.81411765,16.5207119 C1.81411765,16.5207119 2.02823529,18.0899745 2.64,18.7577458 C3.43529412,19.659237 4.47529412,19.6258485 4.93411765,19.7260142 C6.58588235,19.892957 12,19.9597341 12,19.9597341 C12,19.9597341 16.3741176,19.9597341 19.28,19.7260142 C19.6776471,19.659237 20.5647059,19.659237 21.36,18.7577458 C21.9717647,18.0565859 22.1858824,16.5207119 22.1858824,16.5207119 C22.1858824,16.5207119 22.4,14.6843408 22.4,12.8479698 L22.4,11.1117644 C22.4,9.27539329 22.1858824,7.43902221 22.1858824,7.43902221 Z M9.85882353,14.9180608 L9.85882353,8.54084486 L15.4870588,11.7461471 L9.85882353,14.9180608 Z" id="Shape"></path>
        </g>
        <g id="icons/social/instagram-black" transform="translate(48.000000, 24.000000)" fill="#000000">
            <path d="M11.9999794,3.47109813 C14.7769126,3.47109813 15.1058131,3.48165067 16.2024512,3.53161038 C17.2164409,3.57781898 17.767113,3.74698947 18.1336223,3.88916028 C18.6190262,4.0775397 18.9655133,4.30260569 19.3294218,4.66596774 C19.6933302,5.02932979 19.9187347,5.37529662 20.1073561,5.85997171 C20.249782,6.22593068 20.4192069,6.77577598 20.4654849,7.78820198 C20.5155198,8.88323462 20.5260882,9.21164137 20.5260882,11.984405 C20.5260882,14.7571686 20.5155198,15.0855754 20.4654849,16.1805668 C20.4192069,17.193034 20.249782,17.7428793 20.1073561,18.1088383 C19.9187347,18.5935134 19.6933302,18.9394802 19.3294218,19.3028422 C18.9655133,19.6662043 18.6190262,19.8912703 18.1336223,20.0796085 C17.767113,20.2218205 17.2164409,20.390991 16.2024512,20.4371996 C15.1059783,20.4871593 14.7770777,20.4977119 11.9999794,20.4977119 C9.22288103,20.4977119 8.89398044,20.4871593 7.79750755,20.4371996 C6.78351782,20.390991 6.23284568,20.2218205 5.86637769,20.0796085 C5.38093248,19.8912703 5.03444539,19.6662043 4.67053694,19.3028422 C4.30662848,18.9394802 4.08122404,18.5935134 3.89260263,18.1088383 C3.75017674,17.7428793 3.58075186,17.193034 3.53447377,16.180608 C3.48443894,15.0855754 3.47387053,14.7571686 3.47387053,11.984405 C3.47387053,9.21164137 3.48443894,8.88323462 3.53447377,7.7882432 C3.58075186,6.77577598 3.75017674,6.22593068 3.89260263,5.85997171 C4.08122404,5.37529662 4.30662848,5.02932979 4.67053694,4.66596774 C5.03444539,4.30260569 5.38093248,4.0775397 5.86637769,3.88916028 C6.23284568,3.74698947 6.78351782,3.57781898 7.79746626,3.53161038 C8.89414557,3.48165067 9.22304616,3.47109813 11.9999794,3.47109813 M11.9999794,1.6 C9.1754883,1.6 8.82136388,1.61195405 7.7120933,1.66249085 C6.60509327,1.71294521 5.84912145,1.88846371 5.18756354,2.14518734 C4.50367159,2.41056736 3.92368862,2.76564401 3.3455221,3.34294242 C2.76735557,3.92024082 2.41174498,4.49935295 2.14596589,5.18221803 C1.88885621,5.84278261 1.71307377,6.59761934 1.66254354,7.7029572 C1.61193075,8.81052099 1.6,9.16415491 1.6,11.984405 C1.6,14.8046551 1.61193075,15.158289 1.66254354,16.2658528 C1.71307377,17.3711907 1.88885621,18.1260274 2.14596589,18.786592 C2.41174498,19.4694158 2.76735557,20.0485692 3.3455221,20.6258676 C3.92368862,21.203166 4.50367159,21.5582426 5.18756354,21.8236226 C5.84912145,22.0803463 6.60509327,22.2558648 7.7120933,22.3063191 C8.82136388,22.3568559 9.1754883,22.3687688 11.9999794,22.3687688 C14.8244704,22.3687688 15.1786361,22.3568559 16.2878654,22.3063191 C17.3948654,22.2558648 18.1508373,22.0803463 18.8123952,21.8236226 C19.4962871,21.5582426 20.0762701,21.203166 20.6544366,20.6258676 C21.2326031,20.0485692 21.5882137,19.469457 21.8539928,18.786592 C22.1111025,18.1260274 22.2868849,17.3711907 22.3374152,16.2658528 C22.388028,15.158289 22.4,14.8046551 22.4,11.984405 C22.4,9.16415491 22.388028,8.81052099 22.3374152,7.7029572 C22.2868849,6.59761934 22.1111025,5.84278261 21.8539928,5.18221803 C21.5882137,4.49935295 21.2326031,3.92024082 20.6544366,3.34294242 C20.0762701,2.76564401 19.4962871,2.41056736 18.8123952,2.14518734 C18.1508373,1.88846371 17.3948654,1.71294521 16.2878654,1.66249085 C15.1786361,1.61195405 14.8244704,1.6 11.9999794,1.6 M11.9999794,6.65186602 C14.9494749,6.65186602 17.3405372,9.03933809 17.3405372,11.984405 C17.3405372,14.9294719 14.9494749,17.316944 11.9999794,17.316944 C9.05048378,17.316944 6.65942152,14.9294719 6.65942152,11.984405 C6.65942152,9.03933809 9.05048378,6.65186602 11.9999794,6.65186602 Z M11.9999794,15.4458871 C13.9145548,15.4458871 15.4666667,13.8961057 15.4666667,11.984405 C15.4666667,10.0727043 13.9145548,8.52292292 11.9999794,8.52292292 C10.0854039,8.52292292 8.53329205,10.0727043 8.53329205,11.984405 C8.53329205,13.8961057 10.0854039,15.4458871 11.9999794,15.4458871 Z M18.7995149,6.4411861 C18.7995149,7.1294099 18.2407926,7.68733449 17.5515339,7.68733449 C16.8622752,7.68733449 16.3035116,7.1294099 16.3035116,6.4411861 C16.3035116,5.75296231 16.8622752,5.19507894 17.5515339,5.19507894 C18.2407926,5.19507894 18.7995149,5.75296231 18.7995149,6.4411861 Z" id="Fill-1"></path>
        </g>
        <g id="icons/social/pinterest-black" transform="translate(96.000000, 24.000000)" fill="#000000">
            <path d="M6.57844208,12.6027728 C6.57844208,12.6027728 6.92047602,12.707816 6.77186632,13.3470031 L6.38633874,14.6256269 C6.38633874,14.6256269 6.13265129,14.8633612 5.74838717,14.6687117 C5.74838717,14.6687117 2.65738977,13.5590094 3.28379791,8.37883105 C3.28379791,8.37883105 3.88200792,3.97690535 8.24117456,2.3310816 C12.5977951,0.684009864 16.2997903,2.30089921 16.7481463,2.53986237 C17.1951623,2.78009273 21.1367554,5.17684756 20.7768033,9.87585482 C20.4181147,14.5768205 18.0906108,16.2827018 17.6140567,16.7021833 C17.1349565,17.1225865 12.8962014,19.5466437 10.5379342,16.4326922 L9.3440794,20.7742339 C9.3440794,20.7742339 8.74719028,22.2713153 8.2411937,22.72 C8.2411937,22.72 6.77573327,22.3018433 6.71684838,22.1215937 C6.71684838,22.1215937 6.62712358,20.0858948 6.86670239,19.3972485 L8.62675957,12.0924369 C8.62675957,12.0924369 7.85172259,10.0264788 8.41924584,8.64957021 C8.41924584,8.64957021 9.31463695,6.22359299 11.163098,6.64307453 C11.163098,6.64307453 12.8359956,7.03202807 12.4786279,9.21744852 L11.4922868,12.6602384 C11.4922868,12.6602384 11.0452517,14.2774349 11.792014,14.9365516 C11.792014,14.9365516 13.0461511,16.5534218 15.2544877,15.0556876 C15.2544877,15.0556876 16.8365502,14.4261773 17.4629009,10.294722 C17.4629009,10.294722 17.9714627,6.61254653 15.971865,5.08434197 C15.971865,5.08434197 13.703246,2.90051512 9.58235646,4.2476253 C9.58235646,4.2476253 6.47725043,5.32424593 5.85216318,8.64955101 C5.85214403,8.64958941 5.27571913,10.5712787 6.57844208,12.6027728 Z" id="Path"></path>
        </g>
    </g>
</svg>