<?xml version="1.0" encoding="UTF-8"?>
<svg width="470px" height="93px" viewBox="0 0 470 93" version="1.1" xmlns="http://www.w3.org/2000/svg" xmlns:xlink="http://www.w3.org/1999/xlink">
    <!-- Generator: Sketch 52.4 (67378) - http://www.bohemiancoding.com/sketch -->
    <title>Fill 6</title>
    <desc>Created with Sketch.</desc>
    <g id="Symbols" stroke="none" stroke-width="1" fill="none" fill-rule="evenodd">
        <path d="M361.6572,0.6849 C374.7138,0.6849 385.8461,5.1552 395.0571,14.0978 C404.2673,23.0405 408.8725,33.9072 408.8725,46.6938 C408.8725,59.6625 404.3122,70.6171 395.1918,79.5597 C386.1594,88.4126 374.9819,92.8377 361.6572,92.8377 C348.6909,92.8377 337.6467,88.4126 328.5241,79.5597 C319.4938,70.7051 314.9765,59.8857 314.9765,47.097 C314.9765,34.0401 319.4484,23.0405 328.3911,14.0978 C337.4235,5.1552 348.5109,0.6849 361.6572,0.6849 Z M361.9255,7.7935 C372.5666,7.7935 381.5991,11.6396 389.0207,19.3295 C396.4423,27.0214 400.1552,36.3657 400.1552,47.365 C400.1552,57.9186 396.3544,66.9493 388.7526,74.4612 C381.2409,81.973 372.1635,85.7291 361.5222,85.7291 C350.8811,85.7291 341.8937,81.973 334.56,74.4612 C327.3186,66.9493 323.6958,57.6506 323.6958,46.5606 C323.6958,35.471 327.3186,26.2601 334.56,18.9283 C341.8937,11.5044 351.0163,7.7935 361.9255,7.7935 Z M429.6914,91.497 L429.6914,2.0257 L438.5444,2.0257 L438.5444,84.3882 L469.0883,84.3882 L469.0883,91.497 L429.6914,91.497 Z M106.6763,91.497 L106.6763,2.0257 L154.3361,2.0257 L154.3361,9.1341 L115.5294,9.1341 L115.5294,39.8531 L154.3361,39.8531 L154.3361,46.9639 L115.5294,46.9639 L115.5294,84.3882 L154.3361,84.3882 L154.3361,91.497 L106.6763,91.497 Z M178.8142,91.497 L178.8142,2.0257 L187.6673,2.0257 L187.6673,41.8653 L223.5246,2.0257 L235.1806,2.0257 L198.4406,42.5367 L237.8372,91.497 L227.0661,91.497 L187.6673,42.5367 L187.6673,91.497 L178.8142,91.497 Z M272.2021,91.497 L272.2021,54.0726 L241.6606,2.0257 L251.5446,2.0257 L277.2183,45.0848 L303.0408,2.0257 L312.9272,2.0257 L281.0549,54.0726 L281.0549,91.497 L272.2021,91.497 Z M0.9114,91.497 L0.9114,2.0257 L9.7645,2.0257 L9.7645,91.497 L0.9114,91.497 Z M47.965,51.7924 L47.965,91.497 L39.1121,91.497 L39.1121,2.0257 L52.5399,2.0257 C59.3283,2.0257 63.7546,2.1155 65.8193,2.2934 C71.0339,2.7419 75.1652,3.9024 78.2138,5.7815 C85.1979,9.9836 88.69,16.9593 88.69,26.7085 C88.69,32.5215 87.3641,37.483 84.7072,41.5972 C82.0505,45.7112 78.3128,48.5278 73.4925,50.0486 C69.951,51.211 63.6556,51.7924 54.607,51.7924 L47.965,51.7924 Z M47.965,9.1341 L47.965,44.6814 L55.197,44.6814 C63.2617,44.6814 68.7711,43.8323 71.7229,42.1335 C76.935,39.0939 79.5422,34.0401 79.5422,26.9765 C79.5422,18.7482 76.5432,13.3384 70.5407,10.745 C67.9831,9.6725 62.5256,9.1341 54.1634,9.1341 L47.965,9.1341 Z" id="Fill-6" fill="#000000"></path>
    </g>
</svg>